<?xml version="1.0" encoding="UTF-8"?>
<svg width="214px" height="55px" viewBox="0 0 214 55" version="1.1" xmlns="http://www.w3.org/2000/svg" xmlns:xlink="http://www.w3.org/1999/xlink">
    <!-- Generator: Sketch 52.6 (67491) - http://www.bohemiancoding.com/sketch -->
    <title>ACME</title>
    <desc>Created with Sketch.</desc>
    <g id="Page-1" stroke="none" stroke-width="1" fill="none" fill-rule="evenodd">
        <g id="Artboard" transform="translate(-94.000000, -101.000000)" fill="#FFFFFF">
            <path d="M116.96,103.024 L126.248,103.024 L148.424,154 L135.752,154 L131.36,143.2 L111.56,143.2 L107.312,154 L94.928,154 L116.96,103.024 Z M121.28,117.856 L115.088,133.696 L127.544,133.696 L121.28,117.856 Z M186.872,116.272 C185.767994,114.927993 184.412008,113.896004 182.804,113.176 C181.195992,112.455996 179.336011,112.096 177.224,112.096 C175.111989,112.096 173.156009,112.503996 171.356,113.32 C169.555991,114.136004 167.996007,115.275993 166.676,116.74 C165.355993,118.204007 164.324004,119.94399 163.58,121.96 C162.835996,123.97601 162.464,126.159988 162.464,128.512 C162.464,130.912012 162.835996,133.10799 163.58,135.1 C164.324004,137.09201 165.343994,138.819993 166.64,140.284 C167.936006,141.748007 169.459991,142.887996 171.212,143.704 C172.964009,144.520004 174.84799,144.928 176.864,144.928 C179.168012,144.928 181.207991,144.448005 182.984,143.488 C184.760009,142.527995 186.223994,141.184009 187.376,139.456 L196.736,146.44 C194.575989,149.464015 191.840017,151.695993 188.528,153.136 C185.215983,154.576007 181.808018,155.296 178.304,155.296 C174.31998,155.296 170.648017,154.672006 167.288,153.424 C163.927983,152.175994 161.024012,150.388012 158.576,148.06 C156.127988,145.731988 154.220007,142.912017 152.852,139.6 C151.483993,136.287983 150.8,132.59202 150.8,128.512 C150.8,124.43198 151.483993,120.736017 152.852,117.424 C154.220007,114.111983 156.127988,111.292012 158.576,108.964 C161.024012,106.635988 163.927983,104.848006 167.288,103.6 C170.648017,102.351994 174.31998,101.728 178.304,101.728 C179.744007,101.728 181.243992,101.859999 182.804,102.124 C184.364008,102.388001 185.899992,102.807997 187.412,103.384 C188.924008,103.960003 190.375993,104.727995 191.768,105.688 C193.160007,106.648005 194.407994,107.823993 195.512,109.216 L186.872,116.272 Z M202.856,103.024 L219.848,103.024 L231.584,136.288 L231.728,136.288 L243.536,103.024 L260.456,103.024 L260.456,154 L249.224,154 L249.224,114.904 L249.08,114.904 L235.688,154 L227.12,154 L214.232,114.904 L214.088,114.904 L214.088,154 L202.856,154 L202.856,103.024 Z M271.256,103.024 L305.888,103.024 L305.888,113.392 L282.488,113.392 L282.488,122.896 L304.592,122.896 L304.592,133.264 L282.488,133.264 L282.488,143.632 L307.184,143.632 L307.184,154 L271.256,154 L271.256,103.024 Z" id="ACME"></path>
        </g>
    </g>
</svg>