<?xml version="1.0" encoding="UTF-8"?>
<svg width="327px" height="173px" viewBox="0 0 327 173" version="1.1" xmlns="http://www.w3.org/2000/svg" xmlns:xlink="http://www.w3.org/1999/xlink">
    <!-- Generator: Sketch 53.2 (72643) - https://sketchapp.com -->
    <title>cisco-seeklogo.com</title>
    <desc>Created with Sketch.</desc>
    <defs>
        <polygon id="path-1" points="0.06 0.074 297.422 0.074 297.422 125.94 0.06 125.94"></polygon>
    </defs>
    <g id="cisco-seeklogo.com" stroke="none" stroke-width="1" fill="none" fill-rule="evenodd">
        <g id="Group-8" transform="translate(0.000000, 47.000000)">
            <mask id="mask-2" fill="white">
                <use xlink:href="#path-1"></use>
            </mask>
            <g id="Clip-2"></g>
            <polygon id="Fill-1" fill="#B01C33" mask="url(#mask-2)" points="92.438 124.99 106.771 124.99 106.771 68.199 92.438 68.199"></polygon>
            <path d="M222.329,84.471 C221.743,84.17 217.125,81.436 210.27,81.436 C201.008,81.436 194.58,87.889 194.58,96.588 C194.58,105.028 200.729,111.746 210.27,111.746 C217.01,111.746 221.7,109.07 222.329,108.735 L222.329,123.977 C220.528,124.483 215.637,126 209.272,126 C193.149,126 179,114.887 179,96.588 C179,79.625 191.803,67.19 209.272,67.19 C215.991,67.19 220.973,68.824 222.329,69.227 L222.329,84.471" id="Fill-3" fill="#B01C33" mask="url(#mask-2)"></path>
            <path d="M72.738,84.471 C72.162,84.17 67.554,81.436 60.699,81.436 C51.416,81.436 44.992,87.889 44.992,96.588 C44.992,105.028 51.149,111.746 60.699,111.746 C67.437,111.746 72.124,109.07 72.738,108.735 L72.738,123.977 C70.959,124.483 66.071,126 59.67,126 C43.56,126 29.429,114.887 29.429,96.588 C29.429,79.625 42.229,67.19 59.67,67.19 C66.412,67.19 71.392,68.824 72.738,69.227 L72.738,84.471" id="Fill-4" fill="#B01C33" mask="url(#mask-2)"></path>
            <path d="M267.414,81.65 C258.913,81.65 252.598,88.34 252.598,96.588 C252.598,104.854 258.913,111.537 267.414,111.537 C275.907,111.537 282.239,104.854 282.239,96.588 C282.239,88.34 275.907,81.65 267.414,81.65 M297.422,96.588 C297.422,112.834 284.879,126 267.414,126 C249.948,126 237.42,112.834 237.42,96.588 C237.42,80.365 249.948,67.19 267.414,67.19 C284.879,67.19 297.422,80.365 297.422,96.588" id="Fill-5" fill="#B01C33" mask="url(#mask-2)"></path>
            <path d="M161.122,81.107 C160.91,81.039 154.873,79.373 149.917,79.373 C144.173,79.373 141.054,81.297 141.054,84.029 C141.054,87.488 145.264,88.69 147.624,89.436 L151.576,90.695 C160.879,93.653 165.116,100.024 165.116,106.942 C165.116,121.207 152.572,126 141.604,126 C133.977,126 126.839,124.598 126.135,124.449 L126.135,111.379 C127.398,111.699 133.407,113.494 139.67,113.494 C146.798,113.494 150.078,111.404 150.078,108.19 C150.078,105.311 147.241,103.649 143.688,102.531 C142.817,102.242 141.515,101.834 140.626,101.545 C132.643,99.02 125.991,94.33 125.991,84.93 C125.991,74.307 133.94,67.172 147.152,67.172 C154.13,67.172 160.695,68.865 161.122,68.982 L161.122,81.107" id="Fill-6" fill="#B01C33" mask="url(#mask-2)"></path>
            <path d="M14.23,7.166 C14.23,3.249 11.037,0.074 7.116,0.074 C3.2,0.074 0,3.249 0,7.166 L0,22.071 C0,26.008 3.2,29.183 7.116,29.183 C11.037,29.183 14.23,26.008 14.23,22.071 L14.23,7.166" id="Fill-7" fill="#004C59" mask="url(#mask-2)"></path>
        </g>
        <path d="M53.312,34.596 C53.312,30.682 50.118,27.502 46.199,27.502 C42.279,27.502 39.082,30.682 39.082,34.596 L39.082,69.071 C39.082,73.008 42.279,76.183 46.199,76.183 C50.118,76.183 53.312,73.008 53.312,69.071 L53.312,34.596" id="Fill-9" fill="#004C59"></path>
        <path d="M92.396,7.823 C92.396,3.91 89.199,0.734 85.28,0.734 C81.361,0.734 78.163,3.91 78.163,7.823 L78.163,83.24 C78.163,87.174 81.361,90.352 85.28,90.352 C89.199,90.352 92.396,87.174 92.396,83.24 L92.396,7.823" id="Fill-10" fill="#004C59"></path>
        <path d="M131.477,34.596 C131.477,30.682 128.281,27.502 124.361,27.502 C120.442,27.502 117.247,30.682 117.247,34.596 L117.247,69.071 C117.247,73.008 120.442,76.183 124.361,76.183 C128.281,76.183 131.477,73.008 131.477,69.071 L131.477,34.596" id="Fill-11" fill="#004C59"></path>
        <path d="M170.516,54.166 C170.516,50.249 167.342,47.074 163.443,47.074 C159.526,47.074 156.33,50.249 156.33,54.166 L156.33,69.071 C156.33,73.008 159.526,76.183 163.443,76.183 C167.342,76.183 170.516,73.008 170.516,69.071 L170.516,54.166" id="Fill-12" fill="#004C59"></path>
        <path d="M209.614,34.596 C209.614,30.682 206.44,27.502 202.522,27.502 C198.612,27.502 195.43,30.682 195.43,34.596 L195.43,69.071 C195.43,73.008 198.612,76.183 202.522,76.183 C206.44,76.183 209.614,73.008 209.614,69.071 L209.614,34.596" id="Fill-13" fill="#004C59"></path>
        <path d="M248.723,7.823 C248.723,3.91 245.547,0.734 241.631,0.734 C237.709,0.734 234.538,3.91 234.538,7.823 L234.538,83.24 C234.538,87.174 237.709,90.352 241.631,90.352 C245.547,90.352 248.723,87.174 248.723,83.24 L248.723,7.823" id="Fill-14" fill="#004C59"></path>
        <path d="M287.825,34.596 C287.825,30.682 284.651,27.502 280.643,27.502 C276.723,27.502 273.549,30.682 273.549,34.596 L273.549,69.071 C273.549,73.008 276.723,76.183 280.643,76.183 C284.651,76.183 287.825,73.008 287.825,69.071 L287.825,34.596" id="Fill-15" fill="#004C59"></path>
        <path d="M326.844,54.166 C326.844,50.249 323.661,47.074 319.752,47.074 C315.832,47.074 312.651,50.249 312.651,54.166 L312.651,69.071 C312.651,73.008 315.832,76.183 319.752,76.183 C323.661,76.183 326.844,73.008 326.844,69.071 L326.844,54.166" id="Fill-16" fill="#004C59"></path>
        <polyline id="Fill-17" fill="#B01C33" points="318.643 164.514 318.643 165.404 316.11 165.404 316.11 171.99 315.069 171.99 315.069 165.404 312.524 165.404 312.524 164.514 318.643 164.514"></polyline>
        <polyline id="Fill-18" fill="#B01C33" points="319.174 164.514 320.805 164.514 323.039 170.645 323.081 170.645 325.245 164.514 326.844 164.514 326.844 171.99 325.774 171.99 325.774 165.856 325.739 165.856 323.471 171.99 322.483 171.99 320.268 165.856 320.219 165.856 320.219 171.99 319.174 171.99 319.174 164.514"></polyline>
    </g>
</svg>