<?xml version="1.0" encoding="UTF-8"?>
<svg width="218px" height="71px" viewBox="0 0 218 71" version="1.1" xmlns="http://www.w3.org/2000/svg" xmlns:xlink="http://www.w3.org/1999/xlink">
    <!-- Generator: Sketch 53.2 (72643) - https://sketchapp.com -->
    <title>Coca-Cola</title>
    <desc>Created with Sketch.</desc>
    <g id="Coca-Cola" stroke="none" stroke-width="1" fill="none" fill-rule="evenodd">
        <path d="M6.478,29.306 C12.719,17.76 23.499,5.166 36.23,0.961 C38.845,0.31 42.321,-0.424 44.641,1.363 C46.702,2.892 46.98,5.505 46.512,7.858 C45.9,10.64 43.993,14.164 40.805,14.612 C40.231,14.611 39.744,14.408 39.372,14.005 C38.542,13.198 38.604,12.021 38.78,10.96 C39.304,8.751 41.35,6.405 43.705,6.097 C44.108,5.839 43.938,5.352 43.824,5.007 C43.51,4.518 43.138,4.144 42.564,4.027 C40.011,3.73 38.082,5.331 36.125,6.673 C28.697,12.647 23.303,20.322 18.77,27.971 C15.071,34.849 11.918,41.957 11,49.991 C10.549,55.817 12.395,61.536 17.581,64.34 C23.198,67.316 30.468,65.302 36.099,63.771 L41.272,62.182 L51.215,59.231 C60.64,56.479 72.441,55.86 81.643,59.508 C87.205,61.824 92.935,65.002 96.562,70.469 C96.561,70.612 96.561,70.785 96.389,70.755 C88.501,68.603 78.232,66.473 70.411,70.205 L70.038,70.119 C67.668,66.321 63.657,64.211 59.554,63.393 C46.296,62.113 35.395,68.391 22.93,69.956 C16.613,70.536 9.839,70.341 5.434,65.503 C-1.517,58.56 -0.699,46.305 2.602,37.934 C3.674,34.981 5.005,32.115 6.478,29.306" id="Fill-1" fill="#D8213B"></path>
        <path d="M24.779,33.447 C28.073,27.401 33.122,20.012 40.105,17.797 C41.973,17.373 43.981,17.552 45.413,18.792 C48.417,21.787 47.25,26.922 46.233,30.449 C46.233,30.651 46.404,30.88 46.605,30.91 C49.275,30.833 51.432,29.578 53.362,27.747 C57.512,23.111 61.954,17.041 68.697,17.752 C69.96,17.958 71.192,18.68 71.847,19.859 C73.558,23.253 71.881,27.007 69.547,29.611 C68.653,30.47 67.532,31.126 66.241,30.719 C65.725,30.545 65.296,30.027 65.097,29.51 C64.617,27.126 66.004,24.919 67.93,23.664 C68.478,23.12 70.141,23.499 69.687,22.263 C69.344,21.773 68.827,21.714 68.282,21.712 C65.005,23.079 62.869,26.431 60.964,29.237 C58.569,32.99 56.631,36.973 55.354,41.188 C55.004,42.709 54.567,44.688 55.452,46.098 C56.108,46.989 57.198,47.367 58.319,47.084 C61.567,45.803 64.419,43.2 66.896,40.511 C72.575,33.699 75.59,25.268 83.188,19.726 C85.547,18.098 88.882,16.846 91.719,18.349 C92.177,18.523 92.548,19.127 93.124,18.899 C93.583,18.442 93.903,17.466 94.821,17.699 C96.916,17.736 99.328,17.629 101.48,17.838 L101.623,18.039 L101.015,19.5 L89.22,43.459 C89.105,43.716 89.075,44.061 89.131,44.349 C89.331,44.694 89.761,44.666 90.077,44.553 C91.775,43.582 93.101,41.778 94.284,40.261 C95.322,38.829 96.246,37.34 96.998,35.763 C97.315,35.305 97.69,34.733 98.322,34.821 C98.982,34.909 99.815,34.625 100.302,35.086 C99.548,37.093 98.365,38.925 97.324,40.817 C94.121,45.743 89.939,51.471 84.049,52.942 C83.072,53.054 81.867,53.136 81.123,52.416 C79.977,51.551 79.925,50.173 79.613,48.937 C79.499,48.793 79.298,48.764 79.126,48.82 C76.62,51.08 74.029,53.339 70.499,52.896 C69.41,52.662 68.379,51.827 67.894,50.791 C66.982,49.036 67.42,46.771 67.369,44.818 C67.284,44.588 66.997,44.674 66.882,44.76 C63.051,48.536 58.905,51.937 53.821,52.896 C51.465,53.175 49.43,52.478 47.857,50.809 C44.056,45.829 47.064,39.294 49.062,34.449 C49.148,34.221 49.12,33.904 48.834,33.846 C47.456,33.956 46.134,34.18 44.813,34.377 L44.352,34.893 C41.26,40.623 37.91,46.697 32.355,50.955 C30.053,52.612 26.632,53.749 23.939,52.218 C21.132,50.286 20.886,46.839 21.241,43.654 C21.914,40.039 23.218,36.685 24.779,33.447 Z M33.564,33.161 C31.945,36.428 30.298,39.724 30.227,43.599 C30.397,44.317 30.824,45.151 31.627,45.355 C32.488,45.588 33.207,45.13 33.869,44.703 C37.036,42.043 39.231,38.406 41.022,34.909 C41.167,34.566 41.427,34.136 41.227,33.762 C39.335,33.01 37.502,31.71 36.044,30.07 L35.728,30.011 C35.441,30.067 35.325,30.354 35.124,30.555 L33.564,33.161 Z M38.496,26.518 C38.605,28.241 40.207,29.74 41.727,30.319 C42.099,30.435 42.702,30.724 43.019,30.266 C43.597,29.177 43.946,27.972 44.237,26.768 C44.529,25.19 44.766,23.067 43.248,22.028 C42.732,21.739 41.958,21.707 41.411,21.964 C39.686,22.819 38.446,24.566 38.496,26.518 Z M77.377,39.887 C76.941,41.321 76.275,42.868 76.73,44.449 C76.872,44.765 77.215,44.996 77.53,45.083 C78.823,45.116 79.688,43.943 80.523,43.026 C84.302,37.786 87.192,32.142 89.796,26.409 C90.23,25.205 90.923,24.088 90.899,22.738 C90.872,22.451 90.585,22.249 90.356,22.105 C89.783,21.844 89.236,22.245 88.776,22.472 C83.682,26.388 80.934,32.005 78.389,37.335 L77.377,39.887 L77.377,39.887 Z" id="Fill-2" fill="#D8213B"></path>
        <path d="M101.915,25.159 C103.042,22.924 103.997,20.602 105.412,18.483 C105.987,17.853 106.877,17.884 107.653,17.801 L113.307,17.878 L113.537,18.109 C112.582,20.373 111.54,22.608 110.355,24.786 C110.067,25.359 109.462,25.903 108.801,25.987 C106.505,26.036 104.064,26.171 101.883,25.962 C101.654,25.732 101.857,25.417 101.915,25.159" id="Fill-3" fill="#D8213B"></path>
        <path d="M107.587,36.633 C111.52,28.493 116.255,20.645 122.967,13.72 C129.478,7.226 136.529,1.969 145.061,0.362 C147.387,0.025 149.999,0.236 151.773,1.821 C152.117,2.109 152.518,2.397 153.006,2.227 C159.129,-0.221 167.629,-1.082 173.762,1.982 C177.316,3.718 180.696,5.939 184.104,8.076 C184.534,8.307 184.331,8.765 184.101,9.023 C182.141,11.198 180.497,13.432 178.738,15.693 C178.537,15.893 178.221,15.806 178.021,15.691 L169,9.488 C164.789,6.631 159.945,4.633 154.458,5.533 C153.855,5.847 154.139,6.594 154.051,7.168 C154.175,12.795 152.177,17.697 149.464,22.166 C147.299,25.287 144.791,28.551 141.113,29.6 C139.504,29.94 137.956,29.446 136.984,28.151 C134.3,24.065 136.671,19.078 138.635,15.439 C140.888,11.486 144.375,7.766 148.146,4.908 C148.232,4.765 148.405,4.623 148.291,4.45 C147.919,4.076 147.286,4.303 146.827,4.387 C140.705,6.433 135.806,11.841 131.281,16.964 C123.209,26.897 117.086,37.67 113.6,49.515 C112.523,53.96 111.064,60.788 115.589,63.903 C119.571,66.042 123.399,63.298 126.394,60.726 C130.945,56.09 134.007,50.733 135.262,44.68 C135.469,42.873 135.965,40.406 134.305,39.166 C132.814,38.5 131.576,39.73 130.567,40.76 C128.232,43.565 127.245,46.92 126.831,50.536 C125.794,51.394 124.558,51.935 123.464,52.764 C121.392,54.192 119.348,56.108 117.705,58.026 C117.503,58.082 117.475,57.852 117.418,57.738 C117.183,51.077 119.556,45.372 123.22,40.246 C126.131,36.869 129.873,33.982 134.405,35.061 C136.384,35.584 137.697,37.684 138.065,39.551 C138.789,45.812 136.158,51.286 133.326,56.386 C128.766,63.547 121.564,70.784 112.439,69.921 C108.937,69.708 105.673,67.285 104.191,64.065 C100.741,57.192 103.127,48.358 105.446,41.706 L107.587,36.633 Z M138.632,24.769 C138.716,25.545 139.028,26.378 139.832,26.668 C141.38,27.104 142.618,25.96 143.769,25.074 C147.919,20.697 150.433,15.624 151.086,9.799 C151.088,8.938 151.38,7.848 150.894,7.099 C150.549,7.041 150.176,7.183 149.888,7.383 C147.097,9.239 144.475,11.957 142.571,14.707 C140.58,17.772 138.76,20.923 138.632,24.769 L138.632,24.769 Z" id="Fill-4" fill="#D8213B"></path>
        <path d="M144.449,44.252 C147.766,39.872 152.175,35.093 157.746,34.739 C159.151,34.773 160.384,35.351 161.241,36.531 C163.612,40.042 161.615,44.542 160.741,48.098 C160.655,48.414 160.884,48.644 161.112,48.731 C162.261,48.908 163.582,48.74 164.588,48.227 L165.02,47.682 C169.022,36.271 174.972,25.67 182.04,15.561 C186.453,9.721 192.1,3.682 198.655,0.863 C200.207,0.323 202.448,-0.33 203.937,0.824 C205.597,2.179 205.13,4.531 204.693,6.338 C204.515,7.945 202.735,8.111 201.557,8.481 C201.499,8.452 201.442,8.48 201.384,8.422 C201.417,7.389 201.966,6.473 202.17,5.468 C202.229,4.923 202.317,4.464 202.089,3.946 C201.804,3.429 201.172,3.599 200.741,3.741 C198.526,4.824 196.74,6.799 195.039,8.717 C188.698,16.072 184.105,24.238 179.886,32.491 C178.499,35.357 177.052,38.194 175.923,41.175 C175.893,41.347 175.951,41.463 176.094,41.578 C177.07,41.553 177.648,40.55 178.396,40.036 C183.983,34.974 188.51,29.162 192.692,23.263 C193.584,22.835 194.617,22.839 195.651,22.756 L195.852,22.814 C195.792,23.618 195.101,24.247 194.725,24.963 C190.051,31.694 184.746,38.134 178.296,43.997 L173.632,47.828 C172.653,48.686 172.62,50.006 172.128,51.095 C171.229,54.049 170.327,57.059 170.202,60.303 C170.229,60.848 170.427,61.366 170.886,61.655 C172.119,62.204 173.098,61.031 173.962,60.23 C180.275,52.932 183.062,43.985 190.777,37.437 C193.311,35.437 196.646,33.726 199.914,35.23 C200.487,35.433 200.915,36.18 201.606,35.839 C202.095,35.495 202.126,34.721 202.815,34.752 C205.083,34.731 207.495,34.653 209.675,34.833 C209.876,35.006 209.732,35.293 209.673,35.493 L198.457,58.133 C198.023,59.021 197.446,59.967 197.499,60.972 C197.642,61.403 198.101,61.433 198.474,61.348 C200.287,60.349 201.612,58.69 202.795,56.999 C203.978,55.338 204.931,53.591 206.057,51.901 C206.661,51.616 207.493,51.734 208.153,51.822 C208.553,52.197 208.035,52.683 207.948,53.113 C205.113,58.989 201.159,65.406 194.976,68.656 C193.538,69.37 191.555,70.022 189.979,69.156 C188.719,68.29 188.839,66.712 188.27,65.504 C188.155,65.331 187.867,65.359 187.724,65.444 C185.161,67.733 182.396,70.307 178.811,69.318 C176.576,68.277 176.326,65.692 176.161,63.482 C176.047,63.395 176.105,63.223 175.962,63.136 L175.675,63.25 C173.167,66.255 169.996,70.006 165.777,69.646 C164.17,69.526 162.769,67.971 162.285,66.534 C160.809,61.849 162.377,56.716 163.426,52.213 C163.427,51.955 163.14,51.695 162.911,51.665 L159.38,51.71 L158.804,52.369 C156.202,57.47 153.343,62.397 148.85,66.66 C146.489,68.747 143.583,70.488 140.343,69.529 C137.649,68.372 136.941,65.441 136.951,62.686 C137.52,55.741 140.641,49.866 144.449,44.252 Z M145.372,59.844 C145.425,60.82 145.91,61.827 146.914,62.146 C147.573,62.378 148.292,62.093 148.867,61.808 C152.177,59.351 154.142,55.568 155.933,52.13 C156.107,51.786 156.253,51.241 155.794,50.98 C154.075,50.114 152.415,48.759 151.042,47.233 C150.871,47.059 150.554,47.03 150.353,47.144 C149.113,48.805 148.302,50.639 147.435,52.473 C146.451,54.796 145.381,57.088 145.372,59.844 Z M153.695,43.739 C153.803,45.491 155.205,47.132 156.81,47.712 C157.125,47.828 157.699,47.973 157.93,47.572 C158.914,45.336 159.842,42.784 159.334,40.199 C159.135,39.595 158.62,38.991 157.989,38.787 C157.358,38.613 156.697,38.812 156.151,39.069 C154.54,40.125 153.758,41.874 153.695,43.739 Z M185.335,59.063 C185.274,59.895 185.069,60.928 185.7,61.562 C186.042,61.908 186.588,61.939 187.018,61.797 C188.716,60.913 189.812,59.108 190.851,57.619 C194.315,52.234 196.861,46.472 199.235,40.625 C199.323,40.108 199.469,39.391 198.982,39.045 C197.578,38.379 196.482,39.926 195.445,40.669 C190.866,45.217 188.435,50.72 186.147,56.253 L185.335,59.063 L185.335,59.063 Z" id="Fill-5" fill="#D8213B"></path>
        <path d="M192.028,16.256 L195.084,12.305 L195.545,11.904 C204.388,11.735 211.296,6.476 217.517,0.268 C217.486,1.101 217.11,1.874 216.82,2.62 C212.74,12.222 202.836,20.656 192.127,20.792 L189.601,20.755 C189.142,20.639 189.46,20.18 189.575,19.951 L192.028,16.256" id="Fill-6" fill="#D8213B"></path>
        <path d="M203.18,66.94 C203.18,65.739 204.086,64.833 205.247,64.833 C206.394,64.833 207.3,65.739 207.3,66.94 C207.3,68.161 206.394,69.06 205.247,69.06 C204.086,69.06 203.18,68.161 203.18,66.94 Z M205.247,69.483 C206.629,69.483 207.81,68.409 207.81,66.94 C207.81,65.484 206.629,64.41 205.247,64.41 C203.851,64.41 202.67,65.484 202.67,66.94 C202.67,68.409 203.851,69.483 205.247,69.483 Z M204.71,67.142 L205.22,67.142 L205.992,68.409 L206.488,68.409 L205.656,67.121 C206.086,67.068 206.415,66.839 206.415,66.316 C206.415,65.739 206.072,65.484 205.381,65.484 L204.267,65.484 L204.267,68.409 L204.71,68.409 L204.71,67.142 Z M204.71,66.765 L204.71,65.86 L205.314,65.86 C205.622,65.86 205.951,65.926 205.951,66.289 C205.951,66.739 205.616,66.765 205.24,66.765 L204.71,66.765 L204.71,66.765 Z" id="Fill-7" fill="#D8213B"></path>
    </g>
</svg>