<?xml version="1.0" encoding="UTF-8"?>
<svg width="46px" height="36px" viewBox="0 0 46 36" version="1.1" xmlns="http://www.w3.org/2000/svg" xmlns:xlink="http://www.w3.org/1999/xlink">
    <!-- Generator: Sketch 52.6 (67491) - http://www.bohemiancoding.com/sketch -->
    <title>cogs-light</title>
    <desc>Created with Sketch.</desc>
    <g id="Page-1" stroke="none" stroke-width="1" fill="none" fill-rule="evenodd">
        <g id="Artboard" transform="translate(-421.000000, -274.000000)" fill="#FFFFFF" fill-rule="nonzero">
            <g id="cogs-light" transform="translate(421.000000, 274.000000)">
                <path d="M38.7076349,13.8105652 L38.5279758,13.536463 C38.2333348,13.5575478 37.9458801,13.5575478 37.6512391,13.536463 L37.47158,13.8175935 C37.0547707,14.4641937 36.2427113,14.7593807 35.4953293,14.527448 C34.5036107,14.2252327 33.842465,13.9089609 33.0304057,13.2553325 C32.3836327,12.735241 32.2255327,11.8285951 32.6423419,11.1187406 L32.822001,10.8165253 C32.6567146,10.5775643 32.5129873,10.3315751 32.3836327,10.0715294 L31.7296734,10.0715294 C30.8960549,10.0715294 30.191791,9.49521185 30.033691,8.69398988 C29.8468455,7.73111788 29.8396591,6.99315028 30.0408773,5.98810869 C30.191791,5.19391499 30.9104276,4.61759744 31.7368598,4.61759744 L32.3836327,4.61759744 C32.5129873,4.35755171 32.6567146,4.11156251 32.822001,3.87260158 L32.6351555,3.55632975 C32.2183463,2.85350346 32.3764463,1.96091408 33.0088466,1.42676611 C33.7706014,0.787194188 34.4245607,0.42172452 35.4162792,0.0913961665 C36.1924068,-0.168649559 37.0475844,0.140594006 37.4643936,0.836392028 L37.6512391,1.14563559 C37.9458801,1.1245508 38.2333348,1.1245508 38.5279758,1.14563559 L38.7148213,0.836392028 C39.1316305,0.140594006 39.9868081,-0.168649559 40.770122,0.0984244293 C41.7259087,0.414696257 42.3726817,0.773137662 43.1775547,1.44082263 C43.8099549,1.96794235 43.9608686,2.86053173 43.5440594,3.56335801 L43.3572138,3.87260158 C43.5225003,4.11156251 43.6662276,4.35755171 43.7955822,4.61759744 L44.1620869,4.61759744 C44.9957053,4.61759744 45.6999692,5.19391499 45.8580693,5.99513695 C46.0449148,6.95800896 46.0521012,7.69597656 45.8508829,8.70101815 C45.6999692,9.49521185 44.9813326,10.0715294 44.1549005,10.0715294 L43.7955822,10.0715294 C43.6662276,10.3315751 43.5225003,10.5775643 43.3572138,10.8165253 L43.536873,11.1187406 C43.9608686,11.8356234 43.7883958,12.7422693 43.1416229,13.2623607 C42.3726817,13.8808479 41.711536,14.204148 40.6982584,14.5204198 C39.9436899,14.7523525 39.1244442,14.4641937 38.7076349,13.8105652 Z M39.5843716,11.3858146 L40.3461264,12.6719867 C40.827613,12.4751953 41.2731677,12.2221778 41.6899769,11.9129343 L40.9282221,10.6267622 L41.3881495,10.0996425 C41.7330951,9.69903147 42.006177,9.24922265 42.1786498,8.75724425 L42.4157999,8.10361581 L43.9321231,8.10361581 C43.9968004,7.60460914 43.9968004,7.09154596 43.9321231,6.5925393 L42.4157999,6.5925393 L42.1786498,5.93891085 C41.9989906,5.44693245 41.7330951,4.99712363 41.3881495,4.59651265 L40.9282221,4.06939293 L41.6827905,2.77619257 C41.2731677,2.46694901 40.8204266,2.21393154 40.3389401,2.01714019 L39.5771852,3.30331229 L38.8801077,3.17680355 C38.355503,3.07840787 37.8165255,3.07840787 37.2919208,3.17680355 L36.5948433,3.30331229 L35.8330885,2.01714019 C35.3587883,2.20690328 34.9060472,2.46694901 34.4964244,2.77619257 L35.2581792,4.06236467 L34.7982517,4.58948439 C34.4533062,4.99009537 34.1802243,5.43990419 34.0077515,5.93188259 L33.7706014,6.58551103 L32.2542781,6.58551103 C32.1896008,7.08451769 32.1896008,7.59758088 32.2542781,8.09658754 L33.7706014,8.09658754 L34.0077515,8.75021599 C34.1874106,9.24219439 34.4533062,9.69200321 34.7982517,10.0926142 L35.2581792,10.6197339 L34.4964244,11.9129343 C34.9060472,12.2221778 35.3587883,12.4751953 35.8402748,12.6719867 L36.6020296,11.3858146 L37.2991072,11.5123233 C37.8237119,11.610719 38.3626894,11.610719 38.8872941,11.5123233 L39.5843716,11.3858146 Z M10.4436568,31.9434834 L10.4436568,29.7225523 C9.51661558,29.3359979 8.63987891,28.8369912 7.82781953,28.2395888 L5.85156884,29.3570826 C5.14730495,29.7506654 4.26338191,29.6171284 3.71721809,29.0337825 C1.97811747,27.1853494 0.950467112,25.5547924 0.0809168065,22.841883 C-0.163419643,22.0898589 0.159966834,21.2745804 0.857044352,20.8739694 L2.81892231,19.7564756 C2.69675409,18.7725188 2.69675409,17.7815337 2.81892231,16.7975769 L0.857044352,15.6871114 C0.159966834,15.2935287 -0.163419643,14.4712219 0.0809168065,13.7191978 C0.950467112,11.0203449 1.96374474,9.38978791 3.71721809,7.52729825 C4.26338191,6.94395244 5.15449132,6.81041544 5.85156884,7.20399816 L7.82063316,8.32149195 C8.63269254,7.72408961 9.50942921,7.23211121 10.4364704,6.83852849 L10.4364704,4.61759744 C10.4364704,3.82340374 10.997007,3.14166224 11.7875073,2.97298393 C14.2811763,2.42477943 16.2430543,2.36152506 19.0960417,2.97298393 C19.886542,3.14166224 20.4542649,3.830432 20.4542649,4.61759744 L20.4542649,6.83852849 C21.3813061,7.22508295 22.2580428,7.72408961 23.0701022,8.31446369 L25.0391665,7.20399816 C25.7434304,6.81041544 26.6345398,6.94395244 27.1807036,7.52729825 C29.1138361,9.60766405 30.1630456,11.4560972 30.9248004,13.7473109 C31.1691368,14.4852785 30.8673095,15.2865004 30.191791,15.6941397 L28.3951995,16.8046052 C28.5173677,17.788562 28.5173677,18.7795471 28.3951995,19.7635039 L30.4145684,20.9934499 C31.0325959,21.3729761 31.348796,22.0898589 31.1906959,22.7856569 C30.6948367,24.9855032 28.8191951,27.3259147 27.1735172,29.0548673 C26.6273534,29.6311849 25.7434304,29.7576936 25.0463529,29.3641109 L23.0701022,28.2466171 C22.2580428,28.8440195 21.3813061,29.3359979 20.4542649,29.7295806 L20.4542649,31.9505116 C20.4542649,32.7376771 19.8937283,33.4264468 19.103228,33.5951251 C16.4083407,34.1784709 14.4392764,34.1714427 11.7803209,33.5951251 C11.0041934,33.4194186 10.4436568,32.7306488 10.4436568,31.9434834 Z M12.743294,31.5077311 C14.5255128,31.8591442 16.3724089,31.8591442 18.1546277,31.5077311 L18.1546277,28.1552497 L18.9235689,27.8881757 C20.1308784,27.4735082 21.2447652,26.8409645 22.222111,26.0256861 L22.8401384,25.5055946 L25.815294,27.1853494 C27.0226036,25.8429512 28.2586585,24.2826769 28.8407542,22.602922 L25.8655986,20.9231672 L26.0165123,20.1430301 C26.246476,18.9060558 26.246476,17.6479967 26.0165123,16.4110225 L25.8655986,15.6308853 L28.8407542,13.9511305 C28.2586585,12.2713757 27.0226036,10.7040731 25.815294,9.36870312 L22.8401384,11.0484579 L22.222111,10.5283665 C21.2447652,9.70605973 20.1380648,9.08054434 18.9235689,8.66587683 L18.1546277,8.39880285 L18.1546277,5.05334973 C16.3724089,4.70193659 14.5255128,4.70193659 12.743294,5.05334973 L12.743294,8.40583111 L11.9743528,8.6729051 C10.7670433,9.0875726 9.65315654,9.72011626 8.67581074,10.5353947 L8.05778325,11.0554862 L5.08262766,9.37573138 C3.87936018,10.7135079 2.9585969,12.2708818 2.37336761,13.9581588 L5.3485232,15.6379136 L5.19760951,16.4180507 C4.9676458,17.655025 4.9676458,18.9130841 5.19760951,20.1500583 L5.3485232,20.9301955 L2.37336761,22.6099503 C2.95546327,24.2897051 3.87531814,25.8570077 5.08262766,27.1923777 L8.05778325,25.5126229 L8.67581074,26.0327143 C9.65315654,26.8550211 10.7598569,27.4805365 11.9743528,27.895204 L12.743294,28.162278 L12.743294,31.5077311 Z M15.5028586,24.1069703 C12.2186893,24.1069703 9.54536104,21.4924565 9.54536104,18.2805404 C9.54536104,15.0686243 12.2186893,12.4541105 15.5028586,12.4541105 C18.7870279,12.4541105 21.4603561,15.0686243 21.4603561,18.2805404 C21.4603561,21.4924565 18.7870279,24.1069703 15.5028586,24.1069703 Z M15.5028586,14.7031546 C13.4906761,14.7031546 11.8449982,16.3055985 11.8449982,18.2805404 C11.8449982,20.2554823 13.4834897,21.8579262 15.5028586,21.8579262 C17.5150411,21.8579262 19.160719,20.2554823 19.160719,18.2805404 C19.160719,16.3055985 17.5222275,14.7031546 15.5028586,14.7031546 Z M38.7076349,35.2045973 L38.5279758,34.9304951 C38.2333348,34.9515799 37.9458801,34.9515799 37.6512391,34.9304951 L37.47158,35.2116256 C37.0547707,35.8582258 36.2427113,36.1534128 35.4953293,35.9214801 C34.5036107,35.6192648 33.842465,35.302993 33.0304057,34.6493646 C32.3836327,34.1292731 32.2255327,33.2226272 32.6423419,32.5127727 L32.822001,32.2105574 C32.6567146,31.9715964 32.5129873,31.7256072 32.3836327,31.4655615 L31.7296734,31.4655615 C30.8960549,31.4655615 30.191791,30.8892439 30.033691,30.088022 C29.8468455,29.12515 29.8396591,28.3871824 30.0408773,27.3821408 C30.191791,26.5879471 30.9104276,26.0116295 31.7368598,26.0116295 L32.3836327,26.0116295 C32.5129873,25.7515838 32.6567146,25.5055946 32.822001,25.2666337 L32.6351555,24.9503618 C32.2183463,24.2475356 32.3764463,23.3549462 33.0088466,22.8207982 C33.7706014,22.1812263 34.4245607,21.8157566 35.4162792,21.4854283 C36.1924068,21.2253825 37.0475844,21.5346261 37.4643936,22.2304241 L37.6512391,22.5396677 C37.9458801,22.5185829 38.2333348,22.5185829 38.5279758,22.5396677 L38.7148213,22.2304241 C39.1316305,21.5346261 39.9868081,21.2253825 40.770122,21.4924565 C41.7259087,21.8087283 42.3726817,22.1671698 43.1775547,22.8348547 C43.8099549,23.3619744 43.9608686,24.2545638 43.5440594,24.9573901 L43.3572138,25.2666337 C43.5225003,25.5055946 43.6662276,25.7515838 43.7955822,26.0116295 L44.1620869,26.0116295 C44.9957053,26.0116295 45.6999692,26.5879471 45.8580693,27.389169 C46.0449148,28.3520411 46.0521012,29.0900087 45.8508829,30.0950502 C45.6999692,30.8892439 44.9813326,31.4655615 44.1549005,31.4655615 L43.7955822,31.4655615 C43.6662276,31.7256072 43.5225003,31.9715964 43.3572138,32.2105574 L43.536873,32.5127727 C43.9608686,33.2296555 43.7883958,34.1363014 43.1416229,34.6563928 C42.3726817,35.27488 41.711536,35.59818 40.6982584,35.9144519 C39.9436899,36.1393563 39.1244442,35.8511975 38.7076349,35.2045973 Z M39.5843716,32.7728184 L40.3461264,34.0589905 C40.827613,33.8621991 41.2731677,33.6091817 41.6899769,33.2999381 L40.9282221,32.013766 L41.3881495,31.4866463 C41.7330951,31.0860353 42.006177,30.6362265 42.1786498,30.1442481 L42.4157999,29.4906196 L43.9321231,29.4906196 C43.9968004,28.991613 43.9968004,28.4785498 43.9321231,27.9795431 L42.4157999,27.9795431 L42.1786498,27.3259147 C41.9989906,26.8339363 41.7330951,26.3841275 41.3881495,25.9835165 L40.9282221,25.4563968 L41.6899769,24.1702247 C41.280354,23.8609811 40.827613,23.6079636 40.3461264,23.4111723 L39.5843716,24.6973444 L38.8872941,24.5708356 C38.3626894,24.47244 37.8237119,24.47244 37.2991072,24.5708356 L36.6020296,24.6973444 L35.8402748,23.4111723 C35.3587883,23.6079636 34.9132336,23.8609811 34.4964244,24.1702247 L35.2581792,25.4563968 L34.7982517,25.9835165 C34.4533062,26.3841275 34.1802243,26.8339363 34.0077515,27.3259147 L33.7706014,27.9795431 L32.2542781,27.9795431 C32.1896008,28.4785498 32.1896008,28.991613 32.2542781,29.4906196 L33.7706014,29.4906196 L34.0077515,30.1442481 C34.1874106,30.6362265 34.4533062,31.0860353 34.7982517,31.4866463 L35.2581792,32.013766 L34.4964244,33.2999381 C34.9060472,33.6091817 35.3587883,33.8621991 35.8402748,34.0589905 L36.6020296,32.7728184 L37.2991072,32.8993271 C37.8237119,32.9977228 38.3626894,32.9977228 38.8872941,32.8993271 L39.5843716,32.7728184 Z M40.2455173,28.6823694 C40.2455173,27.4383669 39.2178669,26.4333253 37.9458801,26.4333253 C36.6738933,26.4333253 35.6462429,27.4383669 35.6462429,28.6823694 C35.6462429,29.9263719 36.6738933,30.9314135 37.9458801,30.9314135 C39.2178669,30.9314135 40.2455173,29.9263719 40.2455173,28.6823694 Z M40.2455173,7.29536558 C40.2455173,6.05136306 39.2178669,5.04632147 37.9458801,5.04632147 C36.6738933,5.04632147 35.6462429,6.05136306 35.6462429,7.29536558 C35.6462429,8.5393681 36.6738933,9.54440969 37.9458801,9.54440969 C39.2178669,9.54440969 40.2455173,8.53233984 40.2455173,7.29536558 Z" id="Shape"></path>
            </g>
        </g>
    </g>
</svg>