<?xml version="1.0" encoding="UTF-8"?>
<svg width="32px" height="71px" viewBox="0 0 32 71" version="1.1" xmlns="http://www.w3.org/2000/svg" xmlns:xlink="http://www.w3.org/1999/xlink">
    <!-- Generator: Sketch 53.1 (72631) - https://sketchapp.com -->
    <title>Group</title>
    <desc>Created with Sketch.</desc>
    <g id="Page-1" stroke="none" stroke-width="1" fill="none" fill-rule="evenodd">
        <g id="Artboard" transform="translate(-383.000000, -300.000000)">
            <g id="Group" transform="translate(383.000000, 300.000000)">
                <path d="M20.6123882,63.0428932 L8.96289322,63.0428932 C8.41060847,63.0428932 7.96289322,62.595178 7.96289322,62.0428932 C7.96289322,61.4906085 8.41060847,61.0428932 8.96289322,61.0428932 L20.6271068,61.0428932 L19.4984271,59.9142136 C19.1079028,59.5236893 19.1079028,58.8905243 19.4984271,58.5 C19.8889514,58.1094757 20.5221164,58.1094757 20.9126407,58.5 L23.7410678,61.3284271 C24.1315921,61.7189514 24.1315921,62.3521164 23.7410678,62.7426407 L20.9126407,65.5710678 C20.5221164,65.9615921 19.8889514,65.9615921 19.4984271,65.5710678 C19.1079028,65.1805435 19.1079028,64.5473785 19.4984271,64.1568542 L20.6123882,63.0428932 Z" id="Combined-Shape" fill="#9D9D9C" transform="translate(15.998427, 62.035534) rotate(-270.000000) translate(-15.998427, -62.035534) "></path>
                <rect id="Rectangle" stroke="#9D9D9C" stroke-width="2" fill="#FFFFFF" x="1" y="1" width="30" height="48" rx="12"></rect>
                <rect id="Rectangle" fill="#979797" x="15" y="8" width="2" height="12" rx="1"></rect>
            </g>
        </g>
    </g>
</svg>